<svg width="142" height="24" viewBox="0 0 142 24" fill="none" xmlns="http://www.w3.org/2000/svg">
<path d="M9.43065 0C10.6411 0 11.6257 0.217393 12.3845 0.652176C13.1433 1.06522 13.8388 1.55435 14.4712 2.11957C14.688 2.33696 14.8686 2.44565 15.0132 2.44565C15.3564 2.44565 15.5822 1.78261 15.6906 0.456524H16.3139C16.2778 1.28261 16.2507 2.29348 16.2326 3.48913C16.2146 4.68478 16.2055 6.26087 16.2055 8.21739H15.5822C15.4558 7.04348 15.2751 5.98913 15.0403 5.05435C14.8054 4.11957 14.3808 3.32609 13.7666 2.67391C13.2969 2.06522 12.7007 1.59783 11.978 1.27174C11.2734 0.923913 10.5598 0.750001 9.83714 0.750001C8.87962 0.750001 8.03954 1.05435 7.31688 1.66305C6.61229 2.25 6.0161 3.06522 5.52831 4.1087C5.05858 5.13044 4.70629 6.32609 4.47143 7.69565C4.23657 9.04348 4.11913 10.4891 4.11913 12.0326C4.11913 15.9457 4.58886 18.8152 5.52831 20.6413C6.48583 22.4457 7.88597 23.3478 9.72874 23.3478C10.2346 23.3478 10.6682 23.2717 11.0295 23.1196C11.4089 22.9457 11.716 22.7717 11.9509 22.5978C12.24 22.3587 12.4297 22.1087 12.52 21.8478C12.6103 21.587 12.6555 21.2609 12.6555 20.8696V17.6739C12.6555 16.7174 12.5832 16.0109 12.4387 15.5543C12.2942 15.0761 12.0232 14.75 11.6257 14.5761C11.2463 14.4022 10.6772 14.3043 9.91844 14.2826V13.6304C10.2798 13.6522 10.7043 13.6739 11.1921 13.6957C11.698 13.6957 12.2219 13.7065 12.7639 13.7283C13.3239 13.7283 13.8298 13.7283 14.2815 13.7283C14.9861 13.7283 15.6274 13.7174 16.2055 13.6957C16.7837 13.6739 17.2624 13.6522 17.6418 13.6304V14.2826C17.2805 14.3043 17.0005 14.3804 16.8017 14.5109C16.6211 14.6413 16.5036 14.9022 16.4494 15.2935C16.3952 15.6848 16.3681 16.2826 16.3681 17.087V23.5435H15.8261C15.8081 23.1739 15.7358 22.7717 15.6093 22.337C15.4829 21.9022 15.2932 21.6848 15.0403 21.6848C14.9138 21.6848 14.7693 21.7283 14.6067 21.8152C14.4441 21.8804 14.164 22.0435 13.7666 22.3043C13.1343 22.8043 12.4568 23.2174 11.7341 23.5435C11.0295 23.8478 10.2527 24 9.40355 24C7.38011 24 5.66381 23.5435 4.25463 22.6304C2.86352 21.6957 1.80664 20.3587 1.08398 18.6196C0.361327 16.8587 0 14.7609 0 12.3261C0 9.82609 0.406493 7.65217 1.21948 5.80435C2.03247 3.95652 3.14355 2.53261 4.55273 1.53261C5.97997 0.51087 7.60594 0 9.43065 0Z" fill="#F1ECE2"/>
<path d="M33.4851 0.456524C33.4128 1.34783 33.3586 2.21739 33.3225 3.06522C33.3044 3.89131 33.2954 4.52174 33.2954 4.95652C33.2954 5.36957 33.3044 5.77174 33.3225 6.16304C33.3406 6.53261 33.3586 6.84783 33.3767 7.1087H32.7534C32.6089 5.6087 32.374 4.43478 32.0488 3.58696C31.7236 2.71739 31.281 2.1087 30.721 1.76087C30.179 1.3913 29.4653 1.20652 28.5801 1.20652H27.0896C26.5476 1.20652 26.1321 1.26087 25.843 1.36957C25.554 1.47826 25.3552 1.70652 25.2468 2.05435C25.1565 2.40218 25.1113 2.93478 25.1113 3.65218V20.3478C25.1113 21.0435 25.1565 21.5761 25.2468 21.9457C25.3552 22.2935 25.554 22.5217 25.843 22.6304C26.1321 22.7391 26.5476 22.7935 27.0896 22.7935H28.6343C29.5557 22.7935 30.3235 22.587 30.9377 22.1739C31.5701 21.7609 32.0759 21.087 32.4553 20.1522C32.8347 19.1957 33.1147 17.8913 33.2954 16.2391H33.9187C33.8645 16.913 33.8374 17.7826 33.8374 18.8478C33.8374 19.3043 33.8464 19.9674 33.8645 20.837C33.9006 21.7065 33.9548 22.6087 34.0271 23.5435C33.1057 23.5 32.0669 23.4783 30.9106 23.4783C29.7544 23.4565 28.7246 23.4457 27.8213 23.4457C27.4058 23.4457 26.8547 23.4457 26.1682 23.4457C25.4998 23.4457 24.7681 23.4565 23.9732 23.4783C23.1963 23.4783 22.4014 23.4891 21.5884 23.5109C20.7935 23.5109 20.0347 23.5217 19.312 23.5435V22.8913C19.9082 22.8478 20.3509 22.7609 20.6399 22.6304C20.947 22.5 21.1458 22.2391 21.2361 21.8478C21.3445 21.4565 21.3987 20.8696 21.3987 20.087V3.91304C21.3987 3.1087 21.3445 2.52174 21.2361 2.15218C21.1458 1.76087 20.947 1.5 20.6399 1.36957C20.3509 1.21739 19.9082 1.13044 19.312 1.1087V0.456524C20.0347 0.478263 20.7935 0.500002 21.5884 0.521741C22.4014 0.521741 23.1963 0.53261 23.9732 0.554349C24.7681 0.554349 25.4998 0.554349 26.1682 0.554349C26.8547 0.554349 27.4058 0.554349 27.8213 0.554349C28.6524 0.554349 29.5918 0.554349 30.6397 0.554349C31.7056 0.53261 32.6541 0.500002 33.4851 0.456524ZM29.1221 11.6087C29.1221 11.6087 29.1221 11.7174 29.1221 11.9348C29.1221 12.1522 29.1221 12.2609 29.1221 12.2609H24.2984C24.2984 12.2609 24.2984 12.1522 24.2984 11.9348C24.2984 11.7174 24.2984 11.6087 24.2984 11.6087H29.1221ZM29.908 7.30435C29.8357 8.54348 29.7996 9.48913 29.7996 10.1413C29.8176 10.7935 29.8267 11.3913 29.8267 11.9348C29.8267 12.4783 29.8357 13.0761 29.8538 13.7283C29.8718 14.3804 29.917 15.3261 29.9893 16.5652H29.366C29.2756 15.8261 29.1311 15.1304 28.9324 14.4783C28.7517 13.8043 28.4536 13.2717 28.0381 12.8804C27.6406 12.4674 27.0625 12.2609 26.3037 12.2609V11.6087C26.8638 11.6087 27.3154 11.4674 27.6587 11.1848C28.02 10.9022 28.3091 10.5435 28.5259 10.1087C28.7427 9.65217 28.9053 9.18478 29.0137 8.70652C29.1401 8.20652 29.2305 7.73913 29.2847 7.30435H29.908Z" fill="#F1ECE2"/>
<path d="M58.9045 0.456524V1.1087C58.3264 1.13044 57.8837 1.21739 57.5766 1.36957C57.2695 1.5 57.0617 1.76087 56.9533 2.15218C56.863 2.52174 56.8178 3.1087 56.8178 3.91304V20.087C56.8178 20.8696 56.872 21.4565 56.9804 21.8478C57.0888 22.2391 57.2876 22.5 57.5766 22.6304C57.8837 22.7609 58.3264 22.8478 58.9045 22.8913V23.5435C58.4348 23.5 57.8386 23.4783 57.1159 23.4783C56.3933 23.4565 55.6616 23.4457 54.9209 23.4457C54.1079 23.4457 53.34 23.4565 52.6174 23.4783C51.9128 23.4783 51.3437 23.5 50.9101 23.5435V22.8913C51.5244 22.8478 51.9851 22.7609 52.2922 22.6304C52.6174 22.5 52.8342 22.2391 52.9426 21.8478C53.051 21.4565 53.1052 20.8696 53.1052 20.087V2.34783L53.2949 2.38044L46.5742 23.6413H46.1406L38.9863 2.54348V18.7174C38.9863 19.7609 39.0405 20.5761 39.1489 21.163C39.2573 21.7283 39.4922 22.1413 39.8535 22.4022C40.2329 22.6413 40.802 22.8043 41.5608 22.8913V23.5435C41.2175 23.5 40.7749 23.4783 40.2329 23.4783C39.6909 23.4565 39.176 23.4457 38.6882 23.4457C38.2546 23.4457 37.812 23.4565 37.3603 23.4783C36.9268 23.4783 36.5654 23.5 36.2764 23.5435V22.8913C36.8725 22.8043 37.3152 22.6413 37.6042 22.4022C37.9114 22.163 38.1101 21.7717 38.2004 21.2283C38.3088 20.6848 38.363 19.9348 38.363 18.9783V3.91304C38.363 3.1087 38.3088 2.52174 38.2004 2.15218C38.1101 1.76087 37.9114 1.5 37.6042 1.36957C37.3152 1.21739 36.8725 1.13044 36.2764 1.1087V0.456524C36.5654 0.478263 36.9268 0.500002 37.3603 0.521741C37.812 0.54348 38.2546 0.554349 38.6882 0.554349C39.3567 0.554349 40.0071 0.54348 40.6394 0.521741C41.2717 0.500002 41.8318 0.478263 42.3196 0.456524L48.146 17.9674L47.5498 18.5543L53.2136 0.554349C53.4846 0.554349 53.7646 0.554349 54.0537 0.554349C54.3608 0.554349 54.6499 0.554349 54.9209 0.554349C55.6616 0.554349 56.3933 0.54348 57.1159 0.521741C57.8386 0.500002 58.4348 0.478263 58.9045 0.456524Z" fill="#F1ECE2"/>
<path d="M70.4047 0C71.6151 0 72.5997 0.217393 73.3585 0.652176C74.1173 1.06522 74.8129 1.55435 75.4452 2.11957C75.662 2.33696 75.8426 2.44565 75.9872 2.44565C76.3304 2.44565 76.5563 1.78261 76.6646 0.456524H77.2879C77.2518 1.28261 77.2247 2.29348 77.2066 3.48913C77.1886 4.68478 77.1796 6.26087 77.1796 8.21739H76.5563C76.4298 7.04348 76.2491 5.98913 76.0143 5.05435C75.7794 4.11957 75.3548 3.32609 74.7406 2.67391C74.2709 2.06522 73.6747 1.59783 72.952 1.27174C72.2474 0.923913 71.5338 0.750001 70.8111 0.750001C69.8536 0.750001 69.0135 1.05435 68.2909 1.66305C67.5863 2.25 66.9901 3.06522 66.5023 4.1087C66.0326 5.13044 65.6803 6.32609 65.4454 7.69565C65.2106 9.04348 65.0931 10.4891 65.0931 12.0326C65.0931 15.9457 65.5629 18.8152 66.5023 20.6413C67.4598 22.4457 68.86 23.3478 70.7028 23.3478C71.2086 23.3478 71.6422 23.2717 72.0035 23.1196C72.3829 22.9457 72.69 22.7717 72.9249 22.5978C73.214 22.3587 73.4037 22.1087 73.494 21.8478C73.5843 21.587 73.6295 21.2609 73.6295 20.8696V17.6739C73.6295 16.7174 73.5572 16.0109 73.4127 15.5543C73.2682 15.0761 72.9972 14.75 72.5997 14.5761C72.2203 14.4022 71.6512 14.3043 70.8924 14.2826V13.6304C71.2538 13.6522 71.6783 13.6739 72.1661 13.6957C72.672 13.6957 73.1959 13.7065 73.7379 13.7283C74.298 13.7283 74.8038 13.7283 75.2555 13.7283C75.9601 13.7283 76.6014 13.7174 77.1796 13.6957C77.7577 13.6739 78.2364 13.6522 78.6158 13.6304V14.2826C78.2545 14.3043 77.9745 14.3804 77.7757 14.5109C77.5951 14.6413 77.4776 14.9022 77.4234 15.2935C77.3692 15.6848 77.3421 16.2826 77.3421 17.087V23.5435H76.8002C76.7821 23.1739 76.7098 22.7717 76.5834 22.337C76.4569 21.9022 76.2672 21.6848 76.0143 21.6848C75.8878 21.6848 75.7433 21.7283 75.5807 21.8152C75.4181 21.8804 75.138 22.0435 74.7406 22.3043C74.1083 22.8043 73.4308 23.2174 72.7081 23.5435C72.0035 23.8478 71.2267 24 70.3776 24C68.3541 24 66.6378 23.5435 65.2286 22.6304C63.8375 21.6957 62.7806 20.3587 62.058 18.6196C61.3353 16.8587 60.974 14.7609 60.974 12.3261C60.974 9.82609 61.3805 7.65217 62.1935 5.80435C63.0065 3.95652 64.1176 2.53261 65.5267 1.53261C66.954 0.51087 68.5799 0 70.4047 0Z" fill="#F1ECE2"/>
<path d="M88.2804 0.456524V1.1087C87.6662 1.13044 87.1964 1.21739 86.8712 1.36957C86.5641 1.5 86.3564 1.76087 86.248 2.15218C86.1396 2.52174 86.0854 3.1087 86.0854 3.91304V20.3478C86.0854 21.0435 86.1305 21.5761 86.2209 21.9457C86.3293 22.2935 86.5189 22.5217 86.7899 22.6304C87.0609 22.7391 87.4494 22.7935 87.9552 22.7935H89.4999C90.2045 22.7935 90.8187 22.6413 91.3427 22.337C91.8847 22.0326 92.3544 21.587 92.7518 21C93.1493 20.413 93.4745 19.6957 93.7274 18.8478C93.9804 17.9783 94.161 17 94.2694 15.913H94.8927C94.8385 16.6304 94.8114 17.5652 94.8114 18.7174C94.8114 19.1957 94.8204 19.8804 94.8385 20.7717C94.8746 21.663 94.9288 22.587 95.0011 23.5435C94.0797 23.5 93.0409 23.4783 91.8847 23.4783C90.7284 23.4565 89.6986 23.4457 88.7953 23.4457C88.3617 23.4457 87.8107 23.4457 87.1422 23.4457C86.4738 23.4457 85.7421 23.4565 84.9472 23.4783C84.1703 23.4783 83.3754 23.4891 82.5624 23.5109C81.7675 23.5109 81.0087 23.5217 80.286 23.5435V22.8913C80.8822 22.8478 81.3249 22.7609 81.6139 22.6304C81.9211 22.5 82.1198 22.2391 82.2101 21.8478C82.3185 21.4565 82.3727 20.8696 82.3727 20.087V3.91304C82.3727 3.1087 82.3185 2.52174 82.2101 2.15218C82.1198 1.76087 81.9211 1.5 81.6139 1.36957C81.3249 1.21739 80.8822 1.13044 80.286 1.1087V0.456524C80.7377 0.478263 81.3158 0.500002 82.0204 0.521741C82.725 0.54348 83.4838 0.554349 84.2968 0.554349C85.0375 0.554349 85.7692 0.54348 86.4919 0.521741C87.2145 0.500002 87.8107 0.478263 88.2804 0.456524Z" fill="#F1ECE2"/>
<path d="M106.154 0C107.996 0 109.613 0.467392 111.004 1.40218C112.396 2.33696 113.471 3.68478 114.229 5.44565C115.006 7.18478 115.395 9.30435 115.395 11.8043C115.395 14.2391 114.997 16.3696 114.202 18.1957C113.425 20.0217 112.332 21.4457 110.923 22.4674C109.532 23.4891 107.933 24 106.127 24C104.284 24 102.667 23.5326 101.276 22.5978C99.8846 21.663 98.8006 20.3152 98.0238 18.5543C97.265 16.7935 96.8856 14.6739 96.8856 12.1957C96.8856 9.76087 97.2831 7.63044 98.078 5.80435C98.8729 3.97826 99.9659 2.55435 101.357 1.53261C102.748 0.51087 104.347 0 106.154 0ZM106.045 0.586958C104.979 0.586958 104.049 1.07609 103.254 2.05435C102.477 3.03261 101.872 4.38044 101.438 6.09783C101.005 7.81522 100.788 9.80435 100.788 12.0652C100.788 14.3696 101.032 16.3804 101.52 18.0978C102.007 19.7935 102.667 21.1087 103.498 22.0435C104.329 22.9565 105.241 23.413 106.235 23.413C107.301 23.413 108.222 22.9239 108.999 21.9457C109.794 20.9674 110.408 19.6196 110.842 17.9022C111.275 16.163 111.492 14.1739 111.492 11.9348C111.492 9.6087 111.248 7.59783 110.761 5.90217C110.273 4.20652 109.613 2.90218 108.782 1.98913C107.969 1.05435 107.057 0.586958 106.045 0.586958Z" fill="#F1ECE2"/>
<path d="M142 0.456524V1.1087C141.639 1.26087 141.241 1.59783 140.808 2.11957C140.374 2.64131 140.013 3.47826 139.724 4.63043L134.819 23.6413C134.71 23.6413 134.593 23.6304 134.466 23.6087C134.358 23.6087 134.241 23.6087 134.114 23.6087C134.006 23.6087 133.888 23.6087 133.762 23.6087C133.653 23.6304 133.545 23.6413 133.437 23.6413L127.691 2.96739C127.493 2.22826 127.258 1.73913 126.987 1.5C126.734 1.26087 126.472 1.13044 126.201 1.1087V0.456524C126.635 0.478263 127.158 0.500002 127.773 0.521741C128.405 0.54348 129.028 0.554349 129.643 0.554349C130.401 0.554349 131.115 0.54348 131.783 0.521741C132.452 0.500002 132.994 0.478263 133.409 0.456524V1.1087C132.849 1.13044 132.416 1.20652 132.109 1.33696C131.802 1.44565 131.621 1.69565 131.567 2.08696C131.531 2.45652 131.621 3.04348 131.838 3.84783L135.74 18.2935L135.198 19.337L138.45 6.97826C138.847 5.5 139.028 4.33696 138.992 3.48913C138.974 2.6413 138.766 2.04348 138.369 1.69565C137.971 1.32609 137.402 1.13044 136.661 1.1087V0.456524C137.258 0.478263 137.818 0.500002 138.342 0.521741C138.884 0.54348 139.426 0.554349 139.968 0.554349C140.383 0.554349 140.753 0.54348 141.079 0.521741C141.422 0.500002 141.729 0.478263 142 0.456524ZM122.814 0.456524V1.1087C122.398 1.15217 122.109 1.29348 121.946 1.53261C121.784 1.77174 121.711 2.08696 121.73 2.47826C121.766 2.84783 121.856 3.30435 122.001 3.84783L126.147 18.6522L125.442 19.6957L129.019 6.71739L129.426 7.56522L125.063 23.6413C124.954 23.6413 124.837 23.6304 124.71 23.6087C124.602 23.6087 124.485 23.6087 124.358 23.6087C124.25 23.6087 124.132 23.6087 124.006 23.6087C123.897 23.6304 123.789 23.6413 123.681 23.6413L117.719 3.19565C117.484 2.39131 117.195 1.84783 116.852 1.56522C116.526 1.28261 116.228 1.13044 115.957 1.1087V0.456524C116.427 0.478263 116.996 0.500002 117.665 0.521741C118.333 0.54348 118.983 0.554349 119.616 0.554349C120.284 0.554349 120.898 0.54348 121.459 0.521741C122.019 0.500002 122.47 0.478263 122.814 0.456524Z" fill="#F1ECE2"/>
</svg>
