<svg width="74" height="12" viewBox="0 0 74 12" fill="none" xmlns="http://www.w3.org/2000/svg">
<path d="M4.91456 0C5.54536 0 6.05847 0.108696 6.45389 0.326088C6.84932 0.53261 7.21179 0.777175 7.54131 1.05978C7.65429 1.16848 7.74844 1.22283 7.82376 1.22283C8.00264 1.22283 8.12033 0.891305 8.17682 0.228262H8.50163C8.4828 0.641305 8.46868 1.14674 8.45926 1.74457C8.44985 2.34239 8.44514 3.13044 8.44514 4.1087H8.12033C8.05442 3.52174 7.96027 2.99457 7.83788 2.52717C7.71549 2.05978 7.49424 1.66304 7.17413 1.33696C6.92935 1.03261 6.61865 0.798913 6.24206 0.63587C5.87488 0.461957 5.50299 0.375 5.1264 0.375C4.62741 0.375 4.18962 0.527174 3.81302 0.831523C3.44584 1.125 3.13515 1.53261 2.88095 2.05435C2.63616 2.56522 2.45257 3.16304 2.33018 3.84783C2.20779 4.52174 2.14659 5.24457 2.14659 6.0163C2.14659 7.97283 2.39138 9.40761 2.88095 10.3207C3.37994 11.2228 4.10959 11.6739 5.06991 11.6739C5.33352 11.6739 5.55948 11.6359 5.74778 11.5598C5.94549 11.4728 6.10554 11.3859 6.22794 11.2989C6.37857 11.1793 6.47743 11.0543 6.52451 10.9239C6.57158 10.7935 6.59512 10.6304 6.59512 10.4348V8.83696C6.59512 8.3587 6.55746 8.00544 6.48214 7.77717C6.40682 7.53804 6.2656 7.375 6.05847 7.28804C5.86076 7.20109 5.56419 7.15217 5.16876 7.1413V6.81522C5.35706 6.82609 5.57831 6.83696 5.83251 6.84783C6.09613 6.84783 6.36916 6.85326 6.65161 6.86413C6.94347 6.86413 7.20708 6.86413 7.44246 6.86413C7.80964 6.86413 8.14386 6.8587 8.44514 6.84783C8.74641 6.83696 8.99591 6.82609 9.19362 6.81522V7.1413C9.00532 7.15217 8.85939 7.19022 8.75583 7.25544C8.66168 7.32065 8.60048 7.45109 8.57224 7.64674C8.544 7.84239 8.52987 8.1413 8.52987 8.54348V11.7717H8.24743C8.23801 11.587 8.20035 11.3859 8.13445 11.1685C8.06854 10.9511 7.96969 10.8424 7.83788 10.8424C7.77198 10.8424 7.69666 10.8641 7.61192 10.9076C7.52719 10.9402 7.38126 11.0217 7.17413 11.1522C6.84461 11.4022 6.49155 11.6087 6.11496 11.7717C5.74778 11.9239 5.34294 12 4.90044 12C3.84597 12 2.95156 11.7717 2.2172 11.3152C1.49226 10.8478 0.941487 10.1793 0.564892 9.30978C0.188297 8.42935 0 7.38043 0 6.16304C0 4.91304 0.211835 3.82609 0.635504 2.90217C1.05917 1.97826 1.63819 1.26631 2.37255 0.766305C3.11632 0.255435 3.96366 0 4.91456 0Z" fill="#726C52"/>
<path d="M17.45 0.228262C17.4123 0.673914 17.3841 1.1087 17.3653 1.53261C17.3558 1.94565 17.3511 2.26087 17.3511 2.47826C17.3511 2.68478 17.3558 2.88587 17.3653 3.08152C17.3747 3.2663 17.3841 3.42391 17.3935 3.55435H17.0687C16.9934 2.80435 16.871 2.21739 16.7015 1.79348C16.532 1.3587 16.3014 1.05435 16.0095 0.880435C15.7271 0.695652 15.3552 0.603261 14.8938 0.603261H14.1171C13.8347 0.603261 13.6181 0.630435 13.4675 0.684784C13.3169 0.739132 13.2133 0.853262 13.1568 1.02717C13.1097 1.20109 13.0862 1.46739 13.0862 1.82609V10.1739C13.0862 10.5217 13.1097 10.788 13.1568 10.9728C13.2133 11.1467 13.3169 11.2609 13.4675 11.3152C13.6181 11.3696 13.8347 11.3967 14.1171 11.3967H14.9221C15.4023 11.3967 15.8024 11.2935 16.1225 11.087C16.452 10.8804 16.7156 10.5435 16.9133 10.0761C17.1111 9.59783 17.257 8.94565 17.3511 8.11957H17.6759C17.6477 8.45652 17.6336 8.89131 17.6336 9.42391C17.6336 9.65217 17.6383 9.9837 17.6477 10.4185C17.6665 10.8533 17.6948 11.3043 17.7324 11.7717C17.2523 11.75 16.7109 11.7391 16.1084 11.7391C15.5058 11.7283 14.9692 11.7228 14.4984 11.7228C14.2819 11.7228 13.9947 11.7228 13.637 11.7228C13.2886 11.7228 12.9073 11.7283 12.4931 11.7391C12.0882 11.7391 11.674 11.7446 11.2503 11.7554C10.836 11.7554 10.4406 11.7609 10.064 11.7717V11.4457C10.3747 11.4239 10.6054 11.3804 10.756 11.3152C10.9161 11.25 11.0196 11.1196 11.0667 10.9239C11.1232 10.7283 11.1514 10.4348 11.1514 10.0435V1.95652C11.1514 1.55435 11.1232 1.26087 11.0667 1.07609C11.0196 0.880436 10.9161 0.750001 10.756 0.684784C10.6054 0.608696 10.3747 0.565218 10.064 0.554349V0.228262C10.4406 0.239131 10.836 0.250001 11.2503 0.26087C11.674 0.26087 12.0882 0.266305 12.4931 0.277174C12.9073 0.277174 13.2886 0.277174 13.637 0.277174C13.9947 0.277174 14.2819 0.277174 14.4984 0.277174C14.9315 0.277174 15.4211 0.277174 15.9671 0.277174C16.5226 0.266305 17.0169 0.250001 17.45 0.228262ZM15.1763 5.80435C15.1763 5.80435 15.1763 5.8587 15.1763 5.96739C15.1763 6.07609 15.1763 6.13044 15.1763 6.13044H12.6625C12.6625 6.13044 12.6625 6.07609 12.6625 5.96739C12.6625 5.8587 12.6625 5.80435 12.6625 5.80435H15.1763ZM15.5858 3.65217C15.5482 4.27174 15.5294 4.74457 15.5294 5.07065C15.5388 5.39674 15.5435 5.69565 15.5435 5.96739C15.5435 6.23913 15.5482 6.53804 15.5576 6.86413C15.567 7.19022 15.5905 7.66304 15.6282 8.28261H15.3034C15.2563 7.91304 15.181 7.56522 15.0774 7.23913C14.9833 6.90217 14.8279 6.63587 14.6114 6.44022C14.4043 6.2337 14.103 6.13044 13.7076 6.13044V5.80435C13.9994 5.80435 14.2348 5.7337 14.4137 5.59239C14.602 5.45109 14.7526 5.27174 14.8656 5.05435C14.9786 4.82609 15.0633 4.59239 15.1198 4.35326C15.1857 4.10326 15.2328 3.86957 15.261 3.65217H15.5858Z" fill="#726C52"/>
<path d="M30.6967 0.228262V0.554349C30.3954 0.565218 30.1648 0.608696 30.0047 0.684784C29.8447 0.750001 29.7364 0.880436 29.6799 1.07609C29.6328 1.26087 29.6093 1.55435 29.6093 1.95652V10.0435C29.6093 10.4348 29.6375 10.7283 29.694 10.9239C29.7505 11.1196 29.8541 11.25 30.0047 11.3152C30.1648 11.3804 30.3954 11.4239 30.6967 11.4457V11.7717C30.4519 11.75 30.1412 11.7391 29.7646 11.7391C29.388 11.7283 29.0067 11.7228 28.6207 11.7228C28.1971 11.7228 27.7969 11.7283 27.4203 11.7391C27.0532 11.7391 26.7566 11.75 26.5306 11.7717V11.4457C26.8507 11.4239 27.0908 11.3804 27.2509 11.3152C27.4203 11.25 27.5333 11.1196 27.5898 10.9239C27.6463 10.7283 27.6745 10.4348 27.6745 10.0435V1.17391L27.7734 1.19022L24.2711 11.8207H24.0451L20.3168 1.27174V9.3587C20.3168 9.88043 20.3451 10.288 20.4015 10.5815C20.458 10.8641 20.5804 11.0707 20.7687 11.2011C20.9664 11.3207 21.263 11.4022 21.6584 11.4457V11.7717C21.4795 11.75 21.2489 11.7391 20.9664 11.7391C20.684 11.7283 20.4157 11.7228 20.1615 11.7228C19.9355 11.7228 19.7048 11.7283 19.4695 11.7391C19.2435 11.7391 19.0552 11.75 18.9046 11.7717V11.4457C19.2153 11.4022 19.4459 11.3207 19.5966 11.2011C19.7566 11.0815 19.8602 10.8859 19.9073 10.6141C19.9638 10.3424 19.992 9.96739 19.992 9.48913V1.95652C19.992 1.55435 19.9638 1.26087 19.9073 1.07609C19.8602 0.880436 19.7566 0.750001 19.5966 0.684784C19.4459 0.608696 19.2153 0.565218 18.9046 0.554349V0.228262C19.0552 0.239131 19.2435 0.250001 19.4695 0.26087C19.7048 0.27174 19.9355 0.277174 20.1615 0.277174C20.5098 0.277174 20.8488 0.27174 21.1783 0.26087C21.5078 0.250001 21.7997 0.239131 22.0539 0.228262L25.0902 8.9837L24.7795 9.27717L27.731 0.277174C27.8722 0.277174 28.0182 0.277174 28.1688 0.277174C28.3289 0.277174 28.4795 0.277174 28.6207 0.277174C29.0067 0.277174 29.388 0.27174 29.7646 0.26087C30.1412 0.250001 30.4519 0.239131 30.6967 0.228262Z" fill="#726C52"/>
<path d="M36.6898 0C37.3205 0 37.8337 0.108696 38.2291 0.326088C38.6245 0.53261 38.987 0.777175 39.3165 1.05978C39.4295 1.16848 39.5236 1.22283 39.5989 1.22283C39.7778 1.22283 39.8955 0.891305 39.952 0.228262H40.2768C40.258 0.641305 40.2439 1.14674 40.2345 1.74457C40.225 2.34239 40.2203 3.13044 40.2203 4.1087H39.8955C39.8296 3.52174 39.7355 2.99457 39.6131 2.52717C39.4907 2.05978 39.2694 1.66304 38.9493 1.33696C38.7045 1.03261 38.3938 0.798913 38.0172 0.63587C37.6501 0.461957 37.2782 0.375 36.9016 0.375C36.4026 0.375 35.9648 0.527174 35.5882 0.831523C35.221 1.125 34.9103 1.53261 34.6561 2.05435C34.4114 2.56522 34.2278 3.16304 34.1054 3.84783C33.983 4.52174 33.9218 5.24457 33.9218 6.0163C33.9218 7.97283 34.1666 9.40761 34.6561 10.3207C35.1551 11.2228 35.8848 11.6739 36.8451 11.6739C37.1087 11.6739 37.3347 11.6359 37.523 11.5598C37.7207 11.4728 37.8807 11.3859 38.0031 11.2989C38.1538 11.1793 38.2526 11.0543 38.2997 10.9239C38.3468 10.7935 38.3703 10.6304 38.3703 10.4348V8.83696C38.3703 8.3587 38.3326 8.00544 38.2573 7.77717C38.182 7.53804 38.0408 7.375 37.8337 7.28804C37.6359 7.20109 37.3394 7.15217 36.944 7.1413V6.81522C37.1322 6.82609 37.3535 6.83696 37.6077 6.84783C37.8713 6.84783 38.1444 6.85326 38.4268 6.86413C38.7187 6.86413 38.9823 6.86413 39.2176 6.86413C39.5848 6.86413 39.9191 6.8587 40.2203 6.84783C40.5216 6.83696 40.7711 6.82609 40.9688 6.81522V7.1413C40.7805 7.15217 40.6346 7.19022 40.531 7.25544C40.4369 7.32065 40.3757 7.45109 40.3474 7.64674C40.3192 7.84239 40.3051 8.1413 40.3051 8.54348V11.7717H40.0226C40.0132 11.587 39.9755 11.3859 39.9096 11.1685C39.8437 10.9511 39.7449 10.8424 39.6131 10.8424C39.5472 10.8424 39.4718 10.8641 39.3871 10.9076C39.3024 10.9402 39.1564 11.0217 38.9493 11.1522C38.6198 11.4022 38.2667 11.6087 37.8901 11.7717C37.523 11.9239 37.1181 12 36.6756 12C35.6212 12 34.7267 11.7717 33.9924 11.3152C33.2674 10.8478 32.7167 10.1793 32.3401 9.30978C31.9635 8.42935 31.7752 7.38043 31.7752 6.16304C31.7752 4.91304 31.987 3.82609 32.4107 2.90217C32.8344 1.97826 33.4134 1.26631 34.1477 0.766305C34.8915 0.255435 35.7388 0 36.6898 0Z" fill="#726C52"/>
<path d="M46.0053 0.228262V0.554349C45.6852 0.565218 45.4404 0.608696 45.2709 0.684784C45.1109 0.750001 45.0026 0.880436 44.9461 1.07609C44.8896 1.26087 44.8614 1.55435 44.8614 1.95652V10.1739C44.8614 10.5217 44.8849 10.788 44.932 10.9728C44.9885 11.1467 45.0873 11.2609 45.2286 11.3152C45.3698 11.3696 45.5722 11.3967 45.8358 11.3967H46.6408C47.008 11.3967 47.3281 11.3207 47.6011 11.1685C47.8836 11.0163 48.1283 10.7935 48.3355 10.5C48.5426 10.2065 48.7121 9.84783 48.8439 9.42391C48.9757 8.98913 49.0698 8.5 49.1263 7.95652H49.4511C49.4229 8.31522 49.4088 8.78261 49.4088 9.3587C49.4088 9.59783 49.4135 9.94022 49.4229 10.3859C49.4417 10.8315 49.47 11.2935 49.5076 11.7717C49.0275 11.75 48.4861 11.7391 47.8836 11.7391C47.281 11.7283 46.7444 11.7228 46.2736 11.7228C46.0477 11.7228 45.7605 11.7228 45.4122 11.7228C45.0638 11.7228 44.6825 11.7283 44.2682 11.7391C43.8634 11.7391 43.4492 11.7446 43.0255 11.7554C42.6112 11.7554 42.2158 11.7609 41.8392 11.7717V11.4457C42.1499 11.4239 42.3806 11.3804 42.5312 11.3152C42.6913 11.25 42.7948 11.1196 42.8419 10.9239C42.8984 10.7283 42.9266 10.4348 42.9266 10.0435V1.95652C42.9266 1.55435 42.8984 1.26087 42.8419 1.07609C42.7948 0.880436 42.6913 0.750001 42.5312 0.684784C42.3806 0.608696 42.1499 0.565218 41.8392 0.554349V0.228262C42.0746 0.239131 42.3759 0.250001 42.743 0.26087C43.1102 0.27174 43.5056 0.277174 43.9293 0.277174C44.3153 0.277174 44.6966 0.27174 45.0732 0.26087C45.4498 0.250001 45.7605 0.239131 46.0053 0.228262Z" fill="#726C52"/>
<path d="M55.3195 0C56.2798 0 57.1225 0.233696 57.8474 0.701088C58.5723 1.16848 59.1325 1.84239 59.528 2.72283C59.9328 3.59239 60.1352 4.65217 60.1352 5.90217C60.1352 7.11957 59.9281 8.18478 59.5138 9.09783C59.109 10.0109 58.5394 10.7228 57.805 11.2337C57.0801 11.7446 56.2469 12 55.3054 12C54.3451 12 53.5024 11.7663 52.7775 11.2989C52.0525 10.8315 51.4876 10.1576 51.0828 9.27717C50.6874 8.39674 50.4897 7.33696 50.4897 6.09783C50.4897 4.88044 50.6968 3.81522 51.1111 2.90217C51.5253 1.98913 52.0949 1.27717 52.8199 0.766305C53.5448 0.255435 54.378 0 55.3195 0ZM55.263 0.293479C54.7075 0.293479 54.2227 0.538044 53.8084 1.02717C53.4036 1.5163 53.0882 2.19022 52.8622 3.04891C52.6363 3.90761 52.5233 4.90217 52.5233 6.03261C52.5233 7.18478 52.6504 8.19022 52.9046 9.04891C53.1588 9.89674 53.5024 10.5543 53.9355 11.0217C54.3686 11.4783 54.8441 11.7065 55.3619 11.7065C55.9173 11.7065 56.3975 11.462 56.8023 10.9728C57.2166 10.4837 57.5367 9.80978 57.7627 8.95109C57.9886 8.08152 58.1016 7.08696 58.1016 5.96739C58.1016 4.80435 57.9745 3.79891 57.7203 2.95109C57.4661 2.10326 57.1224 1.45109 56.6894 0.994567C56.2657 0.527175 55.7902 0.293479 55.263 0.293479Z" fill="#726C52"/>
<path d="M74 0.228262V0.554349C73.8117 0.630435 73.6046 0.798913 73.3786 1.05978C73.1527 1.32065 72.9644 1.73913 72.8137 2.31522L70.2576 11.8207C70.2011 11.8207 70.1399 11.8152 70.074 11.8043C70.0175 11.8043 69.9563 11.8043 69.8904 11.8043C69.8339 11.8043 69.7727 11.8043 69.7068 11.8043C69.6503 11.8152 69.5938 11.8207 69.5374 11.8207L66.5434 1.4837C66.4399 1.11413 66.3175 0.869566 66.1762 0.75C66.0444 0.630435 65.9079 0.565218 65.7667 0.554349V0.228262C65.9927 0.239131 66.2657 0.250001 66.5858 0.26087C66.9153 0.27174 67.2401 0.277174 67.5602 0.277174C67.9557 0.277174 68.3275 0.27174 68.6759 0.26087C69.0242 0.250001 69.3067 0.239131 69.5232 0.228262V0.554349C69.2314 0.565218 69.0054 0.603261 68.8454 0.668478C68.6853 0.722826 68.5912 0.847827 68.5629 1.04348C68.5441 1.22826 68.5912 1.52174 68.7041 1.92391L70.7378 9.14674L70.4553 9.66848L72.15 3.48913C72.3571 2.75 72.4513 2.16848 72.4324 1.74457C72.423 1.32065 72.3147 1.02174 72.1076 0.847827C71.9005 0.663044 71.6039 0.565218 71.2179 0.554349V0.228262C71.5286 0.239131 71.8205 0.250001 72.0935 0.26087C72.3759 0.27174 72.6584 0.277174 72.9408 0.277174C73.1574 0.277174 73.3504 0.27174 73.5199 0.26087C73.6987 0.250001 73.8588 0.239131 74 0.228262ZM64.0014 0.228262V0.554349C63.7849 0.576087 63.6342 0.64674 63.5495 0.766305C63.4648 0.88587 63.4271 1.04348 63.4365 1.23913C63.4553 1.42391 63.5024 1.65217 63.5777 1.92391L65.7385 9.32609L65.3713 9.84783L67.2354 3.3587L67.4473 3.78261L65.1736 11.8207C65.1171 11.8207 65.0559 11.8152 64.99 11.8043C64.9335 11.8043 64.8723 11.8043 64.8064 11.8043C64.7499 11.8043 64.6887 11.8043 64.6228 11.8043C64.5663 11.8152 64.5098 11.8207 64.4533 11.8207L61.3464 1.59783C61.224 1.19565 61.0734 0.923914 60.8945 0.782609C60.725 0.641305 60.5697 0.565218 60.4285 0.554349V0.228262C60.6733 0.239131 60.9698 0.250001 61.3182 0.26087C61.6665 0.27174 62.0055 0.277174 62.335 0.277174C62.6833 0.277174 63.0034 0.27174 63.2953 0.26087C63.5872 0.250001 63.8225 0.239131 64.0014 0.228262Z" fill="#726C52"/>
</svg>
