<svg width="28" height="28" viewBox="0 0 28 28" fill="none" xmlns="http://www.w3.org/2000/svg">
<path d="M6.62817 5.40575H7.11139C7.21292 5.40575 7.31029 5.36542 7.38208 5.29363C7.45387 5.22184 7.4942 5.12447 7.4942 5.02294C7.4942 4.92141 7.45387 4.82404 7.38208 4.75225C7.31029 4.68046 7.21292 4.64013 7.11139 4.64013H6.62817C6.52665 4.64013 6.42928 4.68046 6.35748 4.75225C6.28569 4.82404 6.24536 4.92141 6.24536 5.02294C6.24536 5.12447 6.28569 5.22184 6.35748 5.29363C6.42928 5.36542 6.52665 5.40575 6.62817 5.40575Z" fill="#726C52"/>
<path d="M4.59375 5.40575H5.07697C5.1785 5.40575 5.27587 5.36542 5.34766 5.29363C5.41945 5.22184 5.45978 5.12447 5.45978 5.02294C5.45978 4.92141 5.41945 4.82404 5.34766 4.75225C5.27587 4.68046 5.1785 4.64013 5.07697 4.64013H4.59375C4.49222 4.64013 4.39485 4.68046 4.32306 4.75225C4.25127 4.82404 4.21094 4.92141 4.21094 5.02294C4.21094 5.12447 4.25127 5.22184 4.32306 5.29363C4.39485 5.36542 4.49222 5.40575 4.59375 5.40575Z" fill="#726C52"/>
<path d="M5.85229 6.66422C5.95382 6.66422 6.05119 6.62389 6.12298 6.55209C6.19478 6.4803 6.23511 6.38293 6.23511 6.28141V5.79797C6.23511 5.69644 6.19478 5.59907 6.12298 5.52728C6.05119 5.45549 5.95382 5.41516 5.85229 5.41516C5.75077 5.41516 5.6534 5.45549 5.58161 5.52728C5.50981 5.59907 5.46948 5.69644 5.46948 5.79797V6.28141C5.46948 6.38293 5.50981 6.4803 5.58161 6.55209C5.6534 6.62389 5.75077 6.66422 5.85229 6.66422Z" fill="#726C52"/>
<path d="M5.85229 4.6305C5.95382 4.6305 6.05119 4.59017 6.12298 4.51838C6.19478 4.44659 6.23511 4.34922 6.23511 4.24769V3.76447C6.23511 3.66294 6.19478 3.56557 6.12298 3.49378C6.05119 3.42199 5.95382 3.38166 5.85229 3.38166C5.75077 3.38166 5.6534 3.42199 5.58161 3.49378C5.50981 3.56557 5.46948 3.66294 5.46948 3.76447V4.24769C5.46948 4.34922 5.50981 4.44659 5.58161 4.51838C5.6534 4.59017 5.75077 4.6305 5.85229 4.6305Z" fill="#726C52"/>
<path d="M22.9231 5.40575H23.4063C23.5078 5.40575 23.6052 5.36542 23.677 5.29363C23.7488 5.22184 23.7891 5.12447 23.7891 5.02294C23.7891 4.92141 23.7488 4.82404 23.677 4.75225C23.6052 4.68046 23.5078 4.64013 23.4063 4.64013H22.9231C22.8216 4.64013 22.7242 4.68046 22.6524 4.75225C22.5806 4.82404 22.5403 4.92141 22.5403 5.02294C22.5403 5.12447 22.5806 5.22184 22.6524 5.29363C22.7242 5.36542 22.8216 5.40575 22.9231 5.40575Z" fill="#726C52"/>
<path d="M20.8893 5.40575H21.3718C21.4734 5.40575 21.5707 5.36542 21.6425 5.29363C21.7143 5.22184 21.7547 5.12447 21.7547 5.02294C21.7547 4.92141 21.7143 4.82404 21.6425 4.75225C21.5707 4.68046 21.4734 4.64013 21.3718 4.64013H20.8893C20.7878 4.64013 20.6904 4.68046 20.6186 4.75225C20.5468 4.82404 20.5065 4.92141 20.5065 5.02294C20.5065 5.12447 20.5468 5.22184 20.6186 5.29363C20.6904 5.36542 20.7878 5.40575 20.8893 5.40575Z" fill="#726C52"/>
<path d="M22.1478 6.66422C22.2494 6.66422 22.3467 6.62389 22.4185 6.55209C22.4903 6.4803 22.5306 6.38293 22.5306 6.28141V5.79797C22.5306 5.69644 22.4903 5.59907 22.4185 5.52728C22.3467 5.45549 22.2494 5.41516 22.1478 5.41516C22.0463 5.41516 21.9489 5.45549 21.8771 5.52728C21.8053 5.59907 21.765 5.69644 21.765 5.79797V6.28141C21.765 6.38293 21.8053 6.4803 21.8771 6.55209C21.9489 6.62389 22.0463 6.66422 22.1478 6.66422Z" fill="#726C52"/>
<path d="M22.1478 4.6305C22.2494 4.6305 22.3467 4.59017 22.4185 4.51838C22.4903 4.44659 22.5306 4.34922 22.5306 4.24769V3.76447C22.5306 3.66294 22.4903 3.56557 22.4185 3.49378C22.3467 3.42199 22.2494 3.38166 22.1478 3.38166C22.0463 3.38166 21.9489 3.42199 21.8771 3.49378C21.8053 3.56557 21.765 3.66294 21.765 3.76447V4.24769C21.765 4.34922 21.8053 4.44659 21.8771 4.51838C21.9489 4.59017 22.0463 4.6305 22.1478 4.6305Z" fill="#726C52"/>
<path d="M16.1556 7.07219L18.7314 4.01078C18.7811 3.95165 18.8118 3.87882 18.8194 3.80189C18.827 3.72497 18.8111 3.64755 18.7738 3.57984L17.5438 1.34663C17.5107 1.2866 17.4622 1.23655 17.4032 1.20169C17.3442 1.16683 17.2769 1.14844 17.2084 1.14844H10.7918C10.7233 1.14844 10.6561 1.16683 10.5971 1.20169C10.5381 1.23655 10.4895 1.2866 10.4565 1.34663L9.22624 3.57984C9.18895 3.64755 9.17305 3.72497 9.18063 3.80189C9.1882 3.87882 9.2189 3.95165 9.26868 4.01078L11.8445 7.07219C9.43583 7.60345 7.30823 9.00546 5.86992 11.0092C4.43161 13.0129 3.78391 15.4773 4.05111 17.9293C4.31831 20.3813 5.48159 22.6482 7.31772 24.2951C9.15386 25.9421 11.5335 26.8529 14 26.8529C16.4665 26.8529 18.8462 25.9421 20.6823 24.2951C22.5185 22.6482 23.6817 20.3813 23.9489 17.9293C24.2161 15.4773 23.5684 13.0129 22.1301 11.0092C20.6918 9.00546 18.5642 7.60345 16.1556 7.07219ZM15.026 6.88822L15.8251 4.14728H17.6162L15.2823 6.92103C15.197 6.90987 15.1121 6.89697 15.026 6.88822ZM13.7572 6.84206L12.9719 4.14728H15.0281L14.2422 6.84206C14.1615 6.84009 14.0812 6.83594 14 6.83594C13.9189 6.83594 13.8386 6.84009 13.7579 6.84206H13.7572ZM12.9334 3.38166L13.2414 1.91406H14.7586L15.0666 3.38166H12.9334ZM17.7896 3.38166H15.8489L15.5409 1.91406H16.982L17.7896 3.38166ZM11.018 1.91406H12.4591L12.1511 3.38166H10.2095L11.018 1.91406ZM10.3836 4.14728H12.1746L12.9739 6.88822C12.8877 6.89697 12.8028 6.91009 12.7173 6.92103L10.3836 4.14728ZM14 26.0859C12.1721 26.0859 10.3852 25.5439 8.86534 24.5283C7.34547 23.5128 6.16087 22.0694 5.46136 20.3806C4.76184 18.6918 4.57881 16.8335 4.93542 15.0407C5.29203 13.2479 6.17227 11.6011 7.46481 10.3085C8.75735 9.01599 10.4042 8.13576 12.197 7.77915C13.9898 7.42254 15.8481 7.60556 17.5369 8.30508C19.2256 9.0046 20.6691 10.1892 21.6846 11.7091C22.7002 13.2289 23.2422 15.0158 23.2422 16.8438C23.2393 19.294 22.2647 21.6431 20.532 23.3758C18.7994 25.1084 16.4503 26.083 14 26.0859Z" fill="#726C52"/>
<path d="M14 8.84341C12.4177 8.84341 10.8709 9.31262 9.55523 10.1917C8.23958 11.0708 7.21415 12.3203 6.60863 13.7822C6.0031 15.244 5.84467 16.8526 6.15336 18.4045C6.46206 19.9565 7.22402 21.382 8.34288 22.5008C9.46175 23.6197 10.8873 24.3817 12.4392 24.6904C13.9911 24.9991 15.5997 24.8406 17.0616 24.2351C18.5235 23.6296 19.7729 22.6042 20.652 21.2885C21.5311 19.9729 22.0003 18.4261 22.0003 16.8438C21.9979 14.7227 21.1543 12.6891 19.6545 11.1893C18.1546 9.68943 16.1211 8.84578 14 8.84341ZM14 24.0785C12.5691 24.0785 11.1703 23.6542 9.98059 22.8592C8.79084 22.0642 7.86355 20.9343 7.31597 19.6124C6.76839 18.2904 6.62512 16.8357 6.90428 15.4323C7.18343 14.0289 7.87247 12.7398 8.88426 11.728C9.89606 10.7162 11.1852 10.0272 12.5886 9.74805C13.992 9.46889 15.4466 9.61216 16.7686 10.1597C18.0906 10.7073 19.2205 11.6346 20.0154 12.8244C20.8104 14.0141 21.2347 15.4129 21.2347 16.8438C21.2325 18.7618 20.4696 20.6007 19.1133 21.957C17.757 23.3133 15.9181 24.0763 14 24.0785Z" fill="#726C52"/>
</svg>
